<svg height="217.5" viewBox="0 0 1680 870" width="420"
xmlns="http://www.w3.org/2000/svg" fill="#9d0006">
  <path d="m1476.3012 1327.8121-.2917-292.4969-46.7662 163.4072-46.7058-162.6616-.2827 222.0343-152.4945-114.3724 11.559-8.6664-.5292-569.30683 144.9467.3774 43.4492 152.19623 43.5126-152.40042 214.4342.69673-70.3645 52.57665-.1246 814.42954zm-1397.972242-708.75047-71.1961555-53.33039 401.3006875.54398 45.93055 35.08717.0378 533.50351 12.16772 8.8133-388.148567 291.252zm235.518822 416.21877-.15295-307.89242-10.75764-8.78449-83.44785.40375-.18291 387.17176zm152.39799 82.7814-.0717-516.75483 47.07325-35.27648 281.69722-.0156 46.98005 35.42167.17344 597.96244-133.22444 100.1999zm223.12917-399.76328-71.04792.49268-11.09868 8.52709.15885 308.10291 93.32018 69.9936.24947-377.92826zm164.80854 481.66028-.34116-598.79687 46.91876-35.23879 282.06992.26967 47.2183 35.27898-.3246 515.55821-241.33557 182.4526zm234.65122-164.742-.03-308.02638-11.8726-9.07298-70.9365.23276-11.40484 8.78228.70414 377.32652z"
  transform="translate(-7.132803 -565.73124)" />
</svg>
